<svg width="47" height="46" viewBox="0 0 47 46" fill="none" xmlns="http://www.w3.org/2000/svg">
<rect x="0.719727" width="46" height="46" rx="23" fill="white" fill-opacity="0.1"/>
<path d="M23.901 19.4062C25.8697 19.4062 27.4947 21.0312 27.4947 23C27.4947 25 25.8697 26.5938 23.901 26.5938C21.901 26.5938 20.3072 25 20.3072 23C20.3072 21.0312 21.901 19.4062 23.901 19.4062ZM23.901 25.3438C25.1822 25.3438 26.2135 24.3125 26.2135 23C26.2135 21.7188 25.1822 20.6875 23.901 20.6875C22.5885 20.6875 21.5572 21.7188 21.5572 23C21.5572 24.3125 22.6197 25.3438 23.901 25.3438ZM28.4635 19.2812C28.4635 19.75 28.0885 20.125 27.6197 20.125C27.151 20.125 26.776 19.75 26.776 19.2812C26.776 18.8125 27.151 18.4375 27.6197 18.4375C28.0885 18.4375 28.4635 18.8125 28.4635 19.2812ZM30.8385 20.125C30.901 21.2812 30.901 24.75 30.8385 25.9062C30.776 27.0312 30.526 28 29.7135 28.8438C28.901 29.6562 27.901 29.9062 26.776 29.9688C25.6197 30.0312 22.151 30.0312 20.9947 29.9688C19.8697 29.9062 18.901 29.6562 18.0572 28.8438C17.2447 28 16.9947 27.0312 16.9322 25.9062C16.8697 24.75 16.8697 21.2812 16.9322 20.125C16.9947 19 17.2447 18 18.0572 17.1875C18.901 16.375 19.8697 16.125 20.9947 16.0625C22.151 16 25.6197 16 26.776 16.0625C27.901 16.125 28.901 16.375 29.7135 17.1875C30.526 18 30.776 19 30.8385 20.125ZM29.3385 27.125C29.7135 26.2188 29.6197 24.0312 29.6197 23C29.6197 22 29.7135 19.8125 29.3385 18.875C29.0885 18.2812 28.6197 17.7812 28.026 17.5625C27.0885 17.1875 24.901 17.2812 23.901 17.2812C22.8697 17.2812 20.6822 17.1875 19.776 17.5625C19.151 17.8125 18.6822 18.2812 18.4322 18.875C18.0572 19.8125 18.151 22 18.151 23C18.151 24.0312 18.0572 26.2188 18.4322 27.125C18.6822 27.75 19.151 28.2188 19.776 28.4688C20.6822 28.8438 22.8697 28.75 23.901 28.75C24.901 28.75 27.0885 28.8438 28.026 28.4688C28.6197 28.2188 29.1197 27.75 29.3385 27.125Z" fill="white"/>
</svg>
