<svg width="46" height="46" viewBox="0 0 46 46" fill="none" xmlns="http://www.w3.org/2000/svg">
<rect width="46" height="46" rx="23" fill="white" fill-opacity="0.1"/>
<path d="M22.5437 30.6875C17.9812 24.125 17.1687 23.4375 17.1687 21C17.1687 17.6875 19.825 15 23.1687 15C26.4812 15 29.1687 17.6875 29.1687 21C29.1687 23.4375 28.325 24.125 23.7625 30.6875C23.4812 31.125 22.825 31.125 22.5437 30.6875ZM23.1687 23.5C24.5437 23.5 25.6687 22.4062 25.6687 21C25.6687 19.625 24.5437 18.5 23.1687 18.5C21.7625 18.5 20.6687 19.625 20.6687 21C20.6687 22.4062 21.7625 23.5 23.1687 23.5Z" fill="white"/>
</svg>
