<svg width="46" height="46" viewBox="0 0 46 46" fill="none" xmlns="http://www.w3.org/2000/svg">
<rect width="46" height="46" rx="23" fill="white" fill-opacity="0.1"/>
<path d="M20.6938 21.75C20.4125 21.75 20.1938 21.5312 20.1938 21.25V20.75C20.1938 20.5 20.4125 20.25 20.6938 20.25H25.6938C25.9438 20.25 26.1938 20.5 26.1938 20.75V21.25C26.1938 21.5312 25.9438 21.75 25.6938 21.75H20.6938ZM20.1938 24.25V23.75C20.1938 23.5 20.4125 23.25 20.6938 23.25H25.6938C25.9438 23.25 26.1938 23.5 26.1938 23.75V24.25C26.1938 24.5312 25.9438 24.75 25.6938 24.75H20.6938C20.4125 24.75 20.1938 24.5312 20.1938 24.25ZM23.1938 28.0625C23.6938 28.0625 24.1938 27.9062 24.6313 27.5625L31.1938 22.8438V29.5C31.1938 30.3438 30.5063 31 29.6938 31H16.6938C15.85 31 15.1938 30.3438 15.1938 29.5V22.8438L21.725 27.5625C22.1625 27.9062 22.6625 28.0625 23.1938 28.0625ZM30.6 20.0938C30.975 20.4062 31.1938 20.8125 31.1938 21.2812V21.625L28.1938 23.7812V18H18.1938V23.7812L15.1938 21.625V21.2812C15.1938 20.8125 15.4125 20.375 15.7563 20.0938C16.0375 19.9062 16.2875 19.6875 16.6938 19.4062V18C16.6938 17.1875 17.35 16.5 18.1938 16.5H20.6C20.6938 16.4375 20.7875 16.375 20.8813 16.3125C21.4125 15.9375 22.4438 15 23.1938 15C23.9125 15 24.9438 15.9375 25.475 16.3125C25.5688 16.375 25.6625 16.4375 25.7563 16.5H28.1938C29.0063 16.5 29.6938 17.1875 29.6938 18V19.4062C30.0688 19.6875 30.3188 19.9062 30.6 20.0938Z" fill="white"/>
</svg>
