<svg width="31" height="31" viewBox="0 0 31 31" fill="none" xmlns="http://www.w3.org/2000/svg">
<path d="M29.8867 2.21484C30.5312 2.39062 31 2.91797 31 3.5625C31 18.6211 18.8125 30.75 3.8125 30.75C3.10938 30.75 2.58203 30.3398 2.40625 29.6953L1 23.6016C0.882812 22.957 1.17578 22.2539 1.82031 21.9609L8.38281 19.1484C8.96875 18.9141 9.61328 19.0898 10.0234 19.5586L12.9531 23.1328C17.5234 20.9648 21.2148 17.2148 23.3242 12.7617L19.75 9.83203C19.2812 9.42188 19.1055 8.77734 19.3398 8.19141L22.1523 1.62891C22.4453 0.984375 23.1484 0.632812 23.793 0.808594L29.8867 2.21484Z" fill="white"/>
</svg>
