<svg width="46" height="45" viewBox="0 0 46 45" fill="none" xmlns="http://www.w3.org/2000/svg">
<rect x="0.5" width="45" height="45" rx="22.5" fill="#F83D8E"/>
<path d="M23.1813 18.4062C25.15 18.4062 26.775 20.0312 26.775 22C26.775 24 25.15 25.5938 23.1813 25.5938C21.1813 25.5938 19.5875 24 19.5875 22C19.5875 20.0312 21.1813 18.4062 23.1813 18.4062ZM23.1813 24.3438C24.4625 24.3438 25.4938 23.3125 25.4938 22C25.4938 20.7188 24.4625 19.6875 23.1813 19.6875C21.8688 19.6875 20.8375 20.7188 20.8375 22C20.8375 23.3125 21.9 24.3438 23.1813 24.3438ZM27.7438 18.2812C27.7438 18.75 27.3688 19.125 26.9 19.125C26.4313 19.125 26.0563 18.75 26.0563 18.2812C26.0563 17.8125 26.4313 17.4375 26.9 17.4375C27.3688 17.4375 27.7438 17.8125 27.7438 18.2812ZM30.1188 19.125C30.1813 20.2812 30.1813 23.75 30.1188 24.9062C30.0563 26.0312 29.8063 27 28.9938 27.8438C28.1813 28.6562 27.1813 28.9062 26.0563 28.9688C24.9 29.0312 21.4313 29.0312 20.275 28.9688C19.15 28.9062 18.1813 28.6562 17.3375 27.8438C16.525 27 16.275 26.0312 16.2125 24.9062C16.15 23.75 16.15 20.2812 16.2125 19.125C16.275 18 16.525 17 17.3375 16.1875C18.1813 15.375 19.15 15.125 20.275 15.0625C21.4313 15 24.9 15 26.0563 15.0625C27.1813 15.125 28.1813 15.375 28.9938 16.1875C29.8063 17 30.0563 18 30.1188 19.125ZM28.6188 26.125C28.9938 25.2188 28.9 23.0312 28.9 22C28.9 21 28.9938 18.8125 28.6188 17.875C28.3688 17.2812 27.9 16.7812 27.3063 16.5625C26.3688 16.1875 24.1813 16.2812 23.1813 16.2812C22.15 16.2812 19.9625 16.1875 19.0563 16.5625C18.4313 16.8125 17.9625 17.2812 17.7125 17.875C17.3375 18.8125 17.4313 21 17.4313 22C17.4313 23.0312 17.3375 25.2188 17.7125 26.125C17.9625 26.75 18.4313 27.2188 19.0563 27.4688C19.9625 27.8438 22.15 27.75 23.1813 27.75C24.1813 27.75 26.3688 27.8438 27.3063 27.4688C27.9 27.2188 28.4 26.75 28.6188 26.125Z" fill="white"/>
</svg>
