<svg width="46" height="45" viewBox="0 0 46 45" fill="none" xmlns="http://www.w3.org/2000/svg">
<rect x="0.860352" width="45" height="45" rx="22.5" fill="#F83D8E"/>
<path d="M31.6697 17.9062C32.0447 19.2188 32.0447 22.0312 32.0447 22.0312C32.0447 22.0312 32.0447 24.8125 31.6697 26.1562C31.4822 26.9062 30.8885 27.4688 30.1697 27.6562C28.826 28 23.5135 28 23.5135 28C23.5135 28 18.1697 28 16.826 27.6562C16.1072 27.4688 15.5135 26.9062 15.326 26.1562C14.951 24.8125 14.951 22.0312 14.951 22.0312C14.951 22.0312 14.951 19.2188 15.326 17.9062C15.5135 17.1562 16.1072 16.5625 16.826 16.375C18.1697 16 23.5135 16 23.5135 16C23.5135 16 28.826 16 30.1697 16.375C30.8885 16.5625 31.4822 17.1562 31.6697 17.9062ZM21.7635 24.5625L26.201 22.0312L21.7635 19.5V24.5625Z" fill="white"/>
</svg>
